<svg xmlns="http://www.w3.org/2000/svg" version="1.1" xmlns:xlink="http://www.w3.org/1999/xlink" width="1500" height="1500" viewBox="0 0 1500 1500"><rect width="1500" height="1500" x="0" y="0" id="background" stroke="transparent" fill="#b3b3b3"></rect><svg xml:space="preserve" width="1000" height="1000" data-version="2" data-id="lg_X1jISBGzEkAsN4kVYr" viewBox="0 0 769 769" x="250" y="250"><rect width="100%" height="100%" fill="transparent"></rect><path fill="#0b0b0b" d="M45.996 464.038a35.32 35.32 0 0 1-35.168-30.449 374.515 374.515 0 0 1 68.204-270.077C199.174-1.708 428.785-41.71 597.721 73.156l15.91-21.998a11.418 11.418 0 0 1 19.943 2.588l42.019 109.081a11.418 11.418 0 0 1-11.19 15.224l-116.694-5.709a11.418 11.418 0 0 1-8.677-18.117l15.757-21.161C418.928 41.665 235.11 74.085 138.71 206.444a304.484 304.484 0 0 0-22.836 37.528h95.151a6.927 6.927 0 0 1 6.09 10.352 53.285 53.285 0 0 0-4.872 41.106 47.956 47.956 0 0 0 29.307 28.926 89.823 89.823 0 0 0 74.522-5.633l71.554-40.04a4.948 4.948 0 0 1 6.242 1.142l149.578 182.69 18.497 22.304a30.448 30.448 0 0 1-6.775 45.672 30.905 30.905 0 0 1-37.527-4.643l-2.512-2.436a.761.761 0 0 0-1.066.61 30.448 30.448 0 0 1-13.093 31.057 31.21 31.21 0 0 1-38.593-4.415l-2.284-2.208a.761.761 0 0 0-1.066.609 30.448 30.448 0 0 1-13.092 31.057 31.21 31.21 0 0 1-38.518-4.262l-2.283-2.208a.761.761 0 0 0-1.066.609 30.448 30.448 0 0 1-47.195 30.448l2.893-5.1a54.807 54.807 0 0 0-7.613-66.225A53.285 53.285 0 0 0 323 518.693a53.285 53.285 0 0 0-30.829-24.055 53.285 53.285 0 0 0-36.995-36.462 53.285 53.285 0 0 0-21.01-29.458 55.568 55.568 0 0 0-72.238 11.722l-19.335 23.674H45.996Zm171.653-13.854a26.642 26.642 0 0 0-33.722 6.775l-20.096 24.663a25.424 25.424 0 0 0 4.035 36.157l3.044 2.436a25.12 25.12 0 0 0 28.47 1.98 1.218 1.218 0 0 1 1.827 1.293 25.881 25.881 0 0 0 9.286 24.968l2.512 1.98a25.881 25.881 0 0 0 27.48 2.663 1.294 1.294 0 0 1 1.903 1.294 25.881 25.881 0 0 0 9.667 22.837l1.751 1.37a25.881 25.881 0 0 0 27.784 2.588 1.522 1.522 0 0 1 2.208 1.066 25.881 25.881 0 0 0 9.439 16.213l1.065.838a26.033 26.033 0 0 0 38.67-7.612l3.73-6.623a26.642 26.642 0 0 0-4.491-33.34 25.881 25.881 0 0 0-28.165-4.416.761.761 0 0 1-1.066-.761 25.577 25.577 0 0 0-34.94-25.272c-3.805.685-2.968-2.664-2.968-2.664a25.577 25.577 0 0 0-36.005-32.123c-2.893.38-2.512-2.208-2.512-2.208a25.424 25.424 0 0 0-8.906-34.102m527.975-174.089-2.436-7.612a35.777 35.777 0 0 0-33.722-24.207h-83.733a91.345 91.345 0 0 1-32.123-5.937l-157.494-60.364a98.196 98.196 0 0 0-94.542 13.626l-98.958 75.131a18.802 18.802 0 0 0 4.948 31.058 62.42 62.42 0 0 0 55.036-2.74l84.19-47.12a15.224 15.224 0 0 1 18.954 3.578L589.27 474.543a4.567 4.567 0 0 0 6.547.685l7.612-6.318a21.314 21.314 0 0 1 13.55-4.796h59.602A303.266 303.266 0 0 1 200.674 625.87l16.822-20.857a11.418 11.418 0 0 0-7.612-18.574L93.648 574.565A11.418 11.418 0 0 0 81.62 589.79l35.853 111.212a11.418 11.418 0 0 0 19.716 2.97l17.05-21.086c129.65 99.97 309.006 104.841 443.893 12.057 134.886-92.791 194.489-262.016 147.492-418.848"></path></svg></svg>