<?xml version="1.0" encoding="utf-8"?><!-- Uploaded to: SVG Repo, www.svgrepo.com, Generator: SVG Repo Mixer Tools -->
<svg fill="#000000" width="800px" height="800px" viewBox="0 0 24 24" id="package" data-name="Flat Line" xmlns="http://www.w3.org/2000/svg" class="icon flat-line"><path id="secondary" d="M15,8v7l-3-1L9,15V8H3V20a1,1,0,0,0,1,1H20a1,1,0,0,0,1-1V8Z" style="fill: rgb(44, 169, 188); stroke-width: 2;"></path><path id="primary" d="M21,8V20a1,1,0,0,1-1,1H4a1,1,0,0,1-1-1V8" style="fill: none; stroke: rgb(0, 0, 0); stroke-linecap: round; stroke-linejoin: round; stroke-width: 2;"></path><path id="primary-2" data-name="primary" d="M15,15l-3-1L9,15V8h6Zm6-7L16.29,3.29a1,1,0,0,0-.7-.29H8.41a1,1,0,0,0-.7.29L3,8Z" style="fill: none; stroke: rgb(0, 0, 0); stroke-linecap: round; stroke-linejoin: round; stroke-width: 2;"></path></svg>